<svg width="19" height="19" viewBox="0 0 19 19" fill="none" xmlns="http://www.w3.org/2000/svg">
<path fill-rule="evenodd" clip-rule="evenodd" d="M5.54183 1.58325C3.3557 1.58325 1.5835 3.35546 1.5835 5.54158V13.4583C1.5835 15.6444 3.3557 17.4166 5.54183 17.4166H13.4585C15.6446 17.4166 17.4168 15.6444 17.4168 13.4583V5.54158C17.4168 3.35546 15.6446 1.58325 13.4585 1.58325H5.54183ZM9.50808 5.54158C9.9453 5.54158 10.2997 5.89603 10.2997 6.33325V9.49992C10.2997 9.93714 9.9453 10.2916 9.50808 10.2916C9.07085 10.2916 8.71641 9.93714 8.71641 9.49992V6.33325C8.71641 5.89603 9.07085 5.54158 9.50808 5.54158ZM8.7085 12.6666C8.7085 12.2294 9.06294 11.8749 9.50016 11.8749H9.50808C9.9453 11.8749 10.2997 12.2294 10.2997 12.6666C10.2997 13.1038 9.9453 13.4583 9.50808 13.4583H9.50016C9.06294 13.4583 8.7085 13.1038 8.7085 12.6666Z" fill="#BFA300"/>
</svg>
