<svg width="20" height="20" viewBox="0 0 20 20" fill="none" xmlns="http://www.w3.org/2000/svg">
<path fill-rule="evenodd" clip-rule="evenodd" d="M10 0C4.74015 0 0.476196 4.47715 0.476196 10C0.476196 15.5228 4.74015 20 10 20C15.2599 20 19.5238 15.5228 19.5238 10C19.5238 4.47715 15.2599 0 10 0ZM14.4192 6.2318C14.8233 6.58537 14.8779 7.21593 14.5412 7.64021L9.77927 13.6402C9.61301 13.8497 9.37249 13.9788 9.11341 13.9976C8.85433 14.0165 8.59916 13.9234 8.40699 13.74L5.54985 11.0127C5.16065 10.6412 5.13197 10.0087 5.48578 9.60008C5.8396 9.19142 6.44193 9.16131 6.83113 9.53281L8.95254 11.5578L13.0779 6.35984C13.4146 5.93556 14.0152 5.87824 14.4192 6.2318Z" fill="url(#paint0_linear_244_20)"/>
<defs>
<linearGradient id="paint0_linear_244_20" x1="0.476196" y1="10" x2="19.5238" y2="10" gradientUnits="userSpaceOnUse">
<stop stop-color="#37784C"/>
<stop offset="1" stop-color="#5F9C73"/>
</linearGradient>
</defs>
</svg>
