<svg width="16" height="16" viewBox="0 0 16 16" fill="none" xmlns="http://www.w3.org/2000/svg">
<path fill-rule="evenodd" clip-rule="evenodd" d="M8.00016 1.33337C4.31826 1.33337 1.3335 4.31814 1.3335 8.00004C1.3335 11.6819 4.31826 14.6667 8.00016 14.6667C11.6821 14.6667 14.6668 11.6819 14.6668 8.00004C14.6668 4.31814 11.6821 1.33337 8.00016 1.33337ZM8.1779 7.33337C8.54609 7.33337 8.84456 7.63185 8.84456 8.00004V10.6667C8.84456 11.0349 8.54609 11.3334 8.1779 11.3334C7.80971 11.3334 7.51123 11.0349 7.51123 10.6667V8.00004C7.51123 7.63185 7.80971 7.33337 8.1779 7.33337ZM7.51123 5.33337C7.51123 4.96518 7.80971 4.66671 8.1779 4.66671H8.18456C8.55275 4.66671 8.85123 4.96518 8.85123 5.33337C8.85123 5.70156 8.55275 6.00004 8.18456 6.00004H8.1779C7.80971 6.00004 7.51123 5.70156 7.51123 5.33337Z" fill="#3590F3"/>
</svg>
