<svg width="22" height="22" viewBox="0 0 22 22" fill="none" xmlns="http://www.w3.org/2000/svg">
<path fill-rule="evenodd" clip-rule="evenodd" d="M11.5264 20.0007C11.2105 20.2222 10.7892 20.2219 10.4733 20.0003L10.471 19.9987L10.4659 19.9951L10.4488 19.9829C10.4344 19.9727 10.4141 19.9581 10.3882 19.9392C10.3366 19.9016 10.2627 19.847 10.1698 19.7765C9.98418 19.6354 9.72203 19.4301 9.40885 19.1677C8.78383 18.6442 7.9486 17.8879 7.11059 16.9574C5.46679 15.1321 3.66675 12.4765 3.66675 9.50016C3.66675 7.48139 4.42866 5.53655 5.79843 4.09562C7.16971 2.65312 9.03975 1.8335 11.0001 1.8335C12.9604 1.8335 14.8305 2.65312 16.2017 4.09562C17.5715 5.53655 18.3334 7.48139 18.3334 9.50016C18.3334 12.4765 16.5334 15.1321 14.8896 16.9574C14.0516 17.8879 13.2163 18.6442 12.5913 19.1677C12.2781 19.4301 12.016 19.6354 11.8303 19.7765C11.7375 19.847 11.6636 19.9016 11.6119 19.9392C11.5861 19.9581 11.5658 19.9727 11.5514 19.9829L11.5343 19.9951L11.5292 19.9987L11.5275 19.9999L11.5264 20.0007ZM8.25008 9.16683C8.25008 7.64805 9.4813 6.41683 11.0001 6.41683C12.5189 6.41683 13.7501 7.64805 13.7501 9.16683C13.7501 10.6856 12.5189 11.9168 11.0001 11.9168C9.4813 11.9168 8.25008 10.6856 8.25008 9.16683Z" fill="#363636"/>
</svg>
