<svg width="189" height="33" viewBox="0 0 189 33" fill="none" xmlns="http://www.w3.org/2000/svg">
<path d="M13.9156 5.61279C13.6709 5.60402 13.4528 5.43741 13.3927 5.1897L12.3648 0.897418C12.2935 0.603667 12.4805 0.307723 12.7786 0.237574C13.0768 0.167424 13.3772 0.351567 13.4484 0.645318L14.4764 4.9376C14.5476 5.23135 14.3607 5.52729 14.0625 5.59744C14.0136 5.6084 13.9646 5.61279 13.9156 5.61279Z" fill="#F6C260"/>
<path d="M28.1704 14.2766C27.9256 14.2678 27.7075 14.1012 27.6475 13.8535C27.5763 13.5597 27.7632 13.2638 28.0613 13.1936L32.3936 12.1852C32.6918 12.1173 32.9922 12.297 33.0634 12.593C33.1346 12.8867 32.9477 13.1827 32.6495 13.2528L28.3172 14.2612C28.2683 14.2722 28.2193 14.2766 28.1704 14.2766Z" fill="#F6C260"/>
<path d="M22.8103 7.10897C22.7169 7.10678 22.6234 7.08047 22.5367 7.02786C22.2763 6.86783 22.194 6.53024 22.3564 6.27375L24.7551 2.45279C24.9153 2.19631 25.2602 2.1152 25.5205 2.27523C25.7808 2.43525 25.8632 2.77285 25.7007 3.02933L23.3021 6.85029C23.1931 7.02348 23.0017 7.11555 22.8103 7.10897Z" fill="#F6C260"/>
<path d="M6.53773 10.8085C6.44427 10.8064 6.35082 10.78 6.26404 10.7274L2.49026 8.42785C2.22993 8.26782 2.1476 7.93022 2.31003 7.67374C2.47024 7.41725 2.81513 7.33614 3.07547 7.49617L6.84924 9.79576C7.10958 9.95579 7.19191 10.2934 7.02947 10.5499C6.92044 10.7231 6.72908 10.8151 6.53773 10.8085Z" fill="#F6C260"/>
<path d="M9.7107 7.4924C9.54381 7.48583 9.3836 7.4091 9.27902 7.26442L6.66898 3.69556C6.48875 3.45003 6.5466 3.10805 6.79581 2.93049C7.04502 2.75292 7.39214 2.80992 7.57237 3.05544L10.1824 6.6243C10.3626 6.86982 10.3048 7.2118 10.0556 7.38937C9.95101 7.4639 9.83085 7.49679 9.7107 7.4924Z" fill="#F6C260"/>
<path d="M26.2188 10.1507C26.0519 10.1441 25.8917 10.0674 25.7871 9.9227C25.6069 9.67718 25.6648 9.3352 25.914 9.15763L29.5587 6.57087C29.8079 6.3933 30.155 6.4503 30.3353 6.69582C30.5155 6.94135 30.4576 7.28333 30.2084 7.46089L26.5637 10.0477C26.4591 10.1222 26.339 10.1551 26.2188 10.1507Z" fill="#F6C260"/>
<path d="M18.5224 5.38234C18.498 5.38234 18.4735 5.38015 18.449 5.37576C18.1464 5.32534 17.9417 5.04474 17.9906 4.74441L18.716 0.458713C18.7672 0.160577 19.0498 -0.0411031 19.3568 0.00712472C19.6595 0.0575447 19.8642 0.338143 19.8152 0.638471L19.0898 4.92417C19.0431 5.19819 18.7983 5.39111 18.5224 5.38234Z" fill="#F6C260"/>
<path d="M4.92242 15.0854C4.89795 15.0854 4.8757 15.0832 4.85122 15.0788L0.467767 14.3774C0.165153 14.3291 -0.0417818 14.0485 0.00717048 13.7482C0.0561227 13.4501 0.343161 13.2462 0.645775 13.2944L5.02923 13.9959C5.33184 14.0441 5.53878 14.3247 5.48982 14.6251C5.44532 14.9013 5.19833 15.0942 4.92242 15.0854Z" fill="#F6C260"/>
<path d="M26.1138 14.2648C25.1415 10.2904 21.6392 7.09422 17.2802 6.81581C14.9194 6.66455 12.7032 7.35728 10.9275 8.62874C9.42335 9.63495 8.40648 11.027 7.76788 12.4563C7.74118 12.5133 7.7167 12.5703 7.69222 12.6295C7.66997 12.6843 7.6455 12.7391 7.62325 12.7939C7.57874 12.9035 7.53647 13.0153 7.49419 13.1271C7.48974 13.138 7.48529 13.149 7.48306 13.16C7.43856 13.2827 7.39629 13.4055 7.35623 13.5304C7.34511 13.5611 7.33621 13.594 7.32731 13.6247C7.30061 13.7146 7.27168 13.8045 7.2472 13.8965C6.97797 14.8611 6.86671 15.7884 6.88229 16.5666C6.88229 16.5666 11.8954 18.408 15.2019 20.4665C15.2019 20.4665 21.7104 16.6258 26.3275 15.2009C26.3275 15.2009 26.2763 14.837 26.1094 14.2648H26.1138Z" fill="#F6C260"/>
<path d="M4.09943 20.2722C10.748 22.6201 17.1319 31.4655 18.171 32.9562C20.9835 32.6624 23.7805 31.7 25.1111 30.4527L24.6505 29.9748C24.6505 29.9748 24.646 29.9792 24.6438 29.9814C13.5161 17.372 0.550396 16.1663 0.42134 16.1553L0.0653239 16.1268L0.0586489 16.4776C-0.0904329 25.2594 6.45359 32.3226 15.3139 33C13.1133 28.0983 4.09721 20.2722 4.09721 20.2722H4.09943Z" fill="url(#paint0_linear_1601_1318)"/>
<path d="M33.1752 15.2893L33.1618 14.9298L32.7991 14.9758C24.0278 16.0851 16.5915 21.0087 16.518 21.0569L16.0908 21.3441L16.5314 21.6094C17.8175 22.3876 19.1214 23.3785 20.3296 24.4C20.9927 23.7424 25.6232 19.3361 31.4974 18.4724C31.4974 18.4724 24.7131 21.7014 21.7915 25.689C24.1145 27.8176 25.8101 29.7401 25.839 29.773L26.0326 29.9944L26.2773 29.83C30.505 27.0065 32.8236 22.8896 33.1729 17.5889C33.2286 16.7384 33.1729 15.3463 33.1729 15.2871L33.1752 15.2893Z" fill="url(#paint1_linear_1601_1318)"/>
<path d="M183.023 26.3744C181.047 26.3744 179.544 25.8004 178.514 24.6526C177.484 23.5048 176.969 21.8496 176.969 19.687C176.969 17.5077 177.484 15.8442 178.514 14.6964C179.544 13.5485 181.047 12.9746 183.023 12.9746C184.981 12.9746 186.467 13.5485 187.48 14.6964C188.493 15.8442 189 17.5077 189 19.687C189 21.8496 188.493 23.5048 187.48 24.6526C186.484 25.8004 184.998 26.3744 183.023 26.3744ZM182.997 23.8541C183.943 23.8541 184.635 23.5048 185.074 22.8061C185.513 22.1074 185.733 21.0594 185.733 19.662C185.733 18.2813 185.513 17.2416 185.074 16.5429C184.635 15.8442 183.943 15.4949 182.997 15.4949C182.052 15.4949 181.351 15.8442 180.895 16.5429C180.456 17.2249 180.237 18.273 180.237 19.687C180.237 21.0677 180.456 22.1074 180.895 22.8061C181.351 23.5048 182.052 23.8541 182.997 23.8541Z" fill="#7A7A7A"/>
<path d="M164.984 31.365C164.511 31.365 164.165 31.2984 163.945 31.1653C163.743 31.0323 163.641 30.8576 163.641 30.6413V17.2915C163.641 16.5762 163.616 16.0022 163.565 15.5697C163.532 15.1206 163.489 14.7712 163.439 14.5217C163.405 14.2722 163.388 14.0725 163.388 13.9228C163.388 13.7731 163.481 13.6483 163.667 13.5485C163.869 13.4487 164.106 13.3739 164.376 13.324C164.663 13.274 164.933 13.2408 165.186 13.2241C165.457 13.1909 165.659 13.1742 165.794 13.1742C165.98 13.1742 166.115 13.2241 166.2 13.324C166.301 13.4071 166.385 13.5652 166.453 13.7981C166.537 14.0143 166.622 14.3387 166.706 14.7712C166.976 14.4052 167.297 14.0892 167.669 13.823C168.04 13.5568 168.454 13.3489 168.91 13.1992C169.366 13.0495 169.847 12.9746 170.353 12.9746C171.333 12.9746 172.185 13.2325 172.911 13.7482C173.637 14.2472 174.203 14.9958 174.608 15.9939C175.014 16.992 175.216 18.2147 175.216 19.662C175.216 20.9928 175.014 22.1656 174.608 23.1804C174.203 24.1785 173.604 24.9604 172.81 25.526C172.033 26.0916 171.088 26.3744 169.973 26.3744C169.534 26.3744 169.121 26.3245 168.732 26.2246C168.361 26.1415 168.015 26.025 167.694 25.8753C167.39 25.709 167.12 25.5343 166.883 25.3513V30.6413C166.883 30.8576 166.774 31.0323 166.554 31.1653C166.352 31.2984 166.014 31.365 165.541 31.365H164.984ZM169.29 23.8541C170.168 23.8541 170.826 23.4965 171.265 22.7811C171.721 22.0492 171.949 21.0095 171.949 19.662C171.949 18.2979 171.729 17.2748 171.29 16.5928C170.851 15.9107 170.218 15.5697 169.391 15.5697C168.867 15.5697 168.395 15.7111 167.973 15.9939C167.55 16.2767 167.187 16.6344 166.883 17.0669V22.9309C167.204 23.2137 167.567 23.4382 167.973 23.6046C168.378 23.7709 168.817 23.8541 169.29 23.8541Z" fill="#7A7A7A"/>
<path d="M144.147 26.2496C143.675 26.2496 143.328 26.1914 143.109 26.0749C142.906 25.9418 142.805 25.7589 142.805 25.526V17.2915C142.805 16.5762 142.78 16.0022 142.729 15.5697C142.695 15.1206 142.653 14.7712 142.602 14.5217C142.569 14.2722 142.552 14.0725 142.552 13.9228C142.552 13.7731 142.645 13.6483 142.83 13.5485C143.033 13.4487 143.269 13.3739 143.54 13.324C143.827 13.274 144.097 13.2408 144.35 13.2241C144.62 13.1909 144.823 13.1742 144.958 13.1742C145.144 13.1742 145.287 13.2241 145.388 13.324C145.49 13.4238 145.574 13.5901 145.642 13.823C145.709 14.0559 145.785 14.3969 145.87 14.8461C146.14 14.5134 146.469 14.2056 146.857 13.9228C147.246 13.6234 147.676 13.3905 148.149 13.2241C148.622 13.0578 149.12 12.9746 149.644 12.9746C150.251 12.9746 150.792 13.0578 151.265 13.2241C151.737 13.3739 152.134 13.5984 152.455 13.8979C152.793 14.1973 153.037 14.5799 153.189 15.0457C153.46 14.6797 153.789 14.3387 154.177 14.0226C154.582 13.7066 155.03 13.457 155.52 13.274C156.026 13.0744 156.55 12.9746 157.09 12.9746C157.951 12.9746 158.669 13.1243 159.243 13.4238C159.817 13.7232 160.247 14.1724 160.535 14.7712C160.838 15.3535 160.99 16.1021 160.99 17.017V25.526C160.99 25.7589 160.881 25.9418 160.661 26.0749C160.459 26.1914 160.112 26.2496 159.623 26.2496H159.091C158.618 26.2496 158.272 26.1914 158.052 26.0749C157.85 25.9418 157.748 25.7589 157.748 25.526V17.4412C157.748 16.8423 157.605 16.3849 157.318 16.0688C157.031 15.7527 156.566 15.5947 155.925 15.5947C155.688 15.5947 155.452 15.6363 155.216 15.7194C154.979 15.786 154.743 15.9024 154.506 16.0688C154.287 16.2185 154.067 16.4098 153.848 16.6427C153.628 16.859 153.434 17.1168 153.265 17.4162L153.291 15.8193C153.375 16.0189 153.434 16.2185 153.468 16.4181C153.502 16.6177 153.519 16.8174 153.519 17.017V25.526C153.519 25.7589 153.409 25.9418 153.189 26.0749C152.987 26.1914 152.649 26.2496 152.176 26.2496H151.644C151.155 26.2496 150.8 26.1914 150.581 26.0749C150.378 25.9418 150.277 25.7589 150.277 25.526V17.4412C150.277 16.8423 150.133 16.3849 149.846 16.0688C149.559 15.7527 149.095 15.5947 148.453 15.5947C148.132 15.5947 147.82 15.6612 147.516 15.7943C147.212 15.9107 146.933 16.0854 146.68 16.3183C146.427 16.5512 146.216 16.8257 146.047 17.1418V25.526C146.047 25.7589 145.937 25.9418 145.718 26.0749C145.515 26.1914 145.177 26.2496 144.705 26.2496H144.147Z" fill="#7A7A7A"/>
<path d="M132.955 26.3744C131.638 26.3744 130.65 26.0417 129.991 25.3762C129.333 24.6942 129.003 23.8042 129.003 22.7063C129.003 22.0741 129.105 21.4836 129.307 20.9346C129.527 20.369 129.907 19.8783 130.447 19.4624C130.987 19.0299 131.756 18.6972 132.752 18.4643C133.765 18.2147 135.065 18.09 136.652 18.09V17.1917C136.652 16.8423 136.576 16.5429 136.424 16.2934C136.289 16.0438 136.053 15.8525 135.715 15.7194C135.394 15.5697 134.964 15.4949 134.424 15.4949C133.765 15.4949 133.174 15.5697 132.651 15.7194C132.144 15.8525 131.713 15.9939 131.359 16.1436C131.021 16.2767 130.776 16.3433 130.624 16.3433C130.523 16.3433 130.422 16.2767 130.32 16.1436C130.219 16.0106 130.126 15.8525 130.042 15.6695C129.957 15.4699 129.89 15.2786 129.839 15.0956C129.789 14.896 129.763 14.738 129.763 14.6215C129.763 14.4219 129.907 14.2306 130.194 14.0476C130.481 13.848 130.861 13.665 131.334 13.4986C131.806 13.3323 132.33 13.2075 132.904 13.1243C133.495 13.0245 134.077 12.9746 134.652 12.9746C135.563 12.9746 136.348 13.0744 137.007 13.274C137.666 13.457 138.206 13.7315 138.628 14.0975C139.05 14.4635 139.362 14.896 139.565 15.395C139.768 15.8941 139.869 16.4431 139.869 17.0419V22.0325C139.869 22.831 139.886 23.4549 139.92 23.904C139.97 24.3532 140.021 24.6942 140.072 24.9271C140.122 25.16 140.148 25.3513 140.148 25.501C140.148 25.6341 140.055 25.7505 139.869 25.8504C139.683 25.9335 139.455 26.0084 139.185 26.0749C138.932 26.1248 138.67 26.1664 138.4 26.1997C138.147 26.2163 137.944 26.2246 137.792 26.2246C137.556 26.2246 137.378 26.1415 137.26 25.9751C137.159 25.8088 137.075 25.5925 137.007 25.3263C136.956 25.0602 136.906 24.7857 136.855 24.5029C136.703 24.6859 136.458 24.9271 136.121 25.2265C135.8 25.526 135.369 25.7921 134.829 26.025C134.305 26.2579 133.681 26.3744 132.955 26.3744ZM133.816 23.8541C134.238 23.8541 134.626 23.7793 134.981 23.6295C135.335 23.4798 135.656 23.2802 135.943 23.0307C136.23 22.7811 136.467 22.5067 136.652 22.2072V20.3108C135.825 20.3108 135.133 20.3524 134.576 20.4356C134.018 20.5187 133.562 20.6435 133.208 20.8098C132.87 20.9762 132.625 21.2008 132.473 21.4836C132.321 21.7497 132.245 22.0575 132.245 22.4068C132.245 22.856 132.372 23.2137 132.625 23.4798C132.895 23.7293 133.292 23.8541 133.816 23.8541Z" fill="#7A7A7A"/>
<path d="M122.363 26.3743C119.543 26.3743 117.458 25.6507 116.107 24.2034C114.756 22.7561 114.081 20.502 114.081 17.4411C114.081 14.4634 114.782 12.2426 116.183 10.7787C117.602 9.29813 119.695 8.55786 122.465 8.55786C123.005 8.55786 123.562 8.59945 124.136 8.68263C124.71 8.74917 125.242 8.8573 125.732 9.00702C126.222 9.1401 126.627 9.29813 126.948 9.48112C127.15 9.59757 127.302 9.72233 127.403 9.85542C127.522 9.97186 127.581 10.0966 127.581 10.2297C127.581 10.3794 127.547 10.5624 127.479 10.7787C127.429 10.9949 127.353 11.2112 127.252 11.4275C127.15 11.6271 127.032 11.8017 126.897 11.9515C126.762 12.0846 126.627 12.1511 126.492 12.1511C126.306 12.1511 126.036 12.0846 125.681 11.9515C125.327 11.8184 124.879 11.6853 124.339 11.5522C123.815 11.4191 123.174 11.3526 122.414 11.3526C121.299 11.3526 120.379 11.5772 119.653 12.0263C118.927 12.4588 118.387 13.1243 118.032 14.0226C117.678 14.9209 117.5 16.0687 117.5 17.4661C117.5 18.8302 117.678 19.9697 118.032 20.8846C118.387 21.7829 118.919 22.4567 119.628 22.9058C120.354 23.355 121.266 23.5796 122.363 23.5796C122.988 23.5796 123.545 23.5297 124.035 23.4298C124.541 23.33 124.98 23.2136 125.352 23.0805C125.723 22.9308 126.027 22.806 126.264 22.7062C126.517 22.6064 126.703 22.5565 126.821 22.5565C126.99 22.5565 127.133 22.6313 127.252 22.7811C127.387 22.9308 127.496 23.1138 127.581 23.33C127.682 23.5297 127.75 23.7376 127.783 23.9539C127.834 24.1535 127.859 24.2949 127.859 24.3781C127.859 24.611 127.792 24.8023 127.657 24.952C127.522 25.0851 127.285 25.2431 126.948 25.4261C126.576 25.6257 126.129 25.8004 125.605 25.9501C125.099 26.0832 124.558 26.183 123.984 26.2495C123.427 26.3327 122.887 26.3743 122.363 26.3743Z" fill="#7A7A7A"/>
<path d="M99.9564 31.3648C99.5343 31.3648 99.2134 31.3149 98.9939 31.2151C98.7913 31.1319 98.69 31.0155 98.69 30.8658C98.69 30.8159 98.69 30.7576 98.69 30.6911C98.7069 30.6412 98.7407 30.558 98.7913 30.4416L100.995 24.8022L100.944 27.1478L96.2332 14.0225C96.2163 13.956 96.1994 13.8894 96.1826 13.8229C96.1657 13.7397 96.1572 13.6648 96.1572 13.5983C96.1572 13.4319 96.267 13.3072 96.4865 13.224C96.706 13.1408 97.0521 13.0992 97.5249 13.0992H98.1328C98.4536 13.0992 98.7238 13.1325 98.9433 13.1991C99.1797 13.2656 99.3316 13.3904 99.3992 13.5733L102.033 22.1073H102.135L104.743 13.5733C104.811 13.3904 104.954 13.2656 105.174 13.1991C105.41 13.1325 105.697 13.0992 106.035 13.0992H106.466C106.938 13.0992 107.276 13.1408 107.479 13.224C107.681 13.3072 107.783 13.4319 107.783 13.5983C107.783 13.6648 107.774 13.7314 107.757 13.7979C107.757 13.8645 107.74 13.9393 107.707 14.0225L101.653 30.8408C101.586 31.0238 101.434 31.1569 101.197 31.2401C100.961 31.3232 100.666 31.3648 100.311 31.3648H99.9564Z" fill="#7A7A7A"/>
<path d="M82.2739 26.3744C80.9568 26.3744 79.9691 26.0417 79.3105 25.3762C78.652 24.6942 78.3228 23.8042 78.3228 22.7063C78.3228 22.0741 78.4241 21.4836 78.6267 20.9346C78.8462 20.369 79.2261 19.8783 79.7664 19.4624C80.3068 19.0299 81.075 18.6972 82.0713 18.4643C83.0844 18.2147 84.3845 18.09 85.9717 18.09V17.1917C85.9717 16.8423 85.8958 16.5429 85.7438 16.2934C85.6087 16.0438 85.3723 15.8525 85.0346 15.7194C84.7138 15.5697 84.2832 15.4949 83.7429 15.4949C83.0844 15.4949 82.4934 15.5697 81.97 15.7194C81.4634 15.8525 81.0328 15.9939 80.6782 16.1436C80.3405 16.2767 80.0957 16.3433 79.9437 16.3433C79.8424 16.3433 79.7411 16.2767 79.6398 16.1436C79.5385 16.0106 79.4456 15.8525 79.3612 15.6695C79.2768 15.4699 79.2092 15.2786 79.1586 15.0956C79.1079 14.896 79.0826 14.738 79.0826 14.6215C79.0826 14.4219 79.2261 14.2306 79.5132 14.0476C79.8002 13.848 80.1801 13.665 80.6529 13.4986C81.1257 13.3323 81.6491 13.2075 82.2232 13.1243C82.8142 13.0245 83.3968 12.9746 83.9709 12.9746C84.8827 12.9746 85.6678 13.0744 86.3263 13.274C86.9849 13.457 87.5252 13.7315 87.9473 14.0975C88.3694 14.4635 88.6818 14.896 88.8844 15.395C89.0871 15.8941 89.1884 16.4431 89.1884 17.0419V22.0325C89.1884 22.831 89.2053 23.4549 89.239 23.904C89.2897 24.3532 89.3403 24.6942 89.391 24.9271C89.4417 25.16 89.467 25.3513 89.467 25.501C89.467 25.6341 89.3741 25.7505 89.1884 25.8504C89.0026 25.9335 88.7747 26.0084 88.5045 26.0749C88.2513 26.1248 87.9895 26.1664 87.7194 26.1997C87.4661 26.2163 87.2635 26.2246 87.1115 26.2246C86.8751 26.2246 86.6978 26.1415 86.5796 25.9751C86.4783 25.8088 86.3939 25.5925 86.3263 25.3263C86.2757 25.0602 86.225 24.7857 86.1744 24.5029C86.0224 24.6859 85.7776 24.9271 85.4399 25.2265C85.119 25.526 84.6885 25.7921 84.1481 26.025C83.6247 26.2579 83 26.3744 82.2739 26.3744ZM83.135 23.8541C83.5572 23.8541 83.9455 23.7793 84.3001 23.6295C84.6547 23.4798 84.9755 23.2802 85.2626 23.0307C85.5496 22.7811 85.786 22.5067 85.9717 22.2072V20.3108C85.1444 20.3108 84.4521 20.3524 83.8949 20.4356C83.3377 20.5187 82.8818 20.6435 82.5272 20.8098C82.1895 20.9762 81.9446 21.2008 81.7927 21.4836C81.6407 21.7497 81.5647 22.0575 81.5647 22.4068C81.5647 22.856 81.6914 23.2137 81.9446 23.4798C82.2148 23.7293 82.6116 23.8541 83.135 23.8541Z" fill="#7A7A7A"/>
<path d="M74.8829 26.3743C74.123 26.3743 73.4814 26.2413 72.958 25.9751C72.4514 25.7089 72.0715 25.3097 71.8182 24.7773C71.5649 24.2284 71.4383 23.5713 71.4383 22.8061V15.6695H70.4758C70.0199 15.6695 69.792 15.3118 69.792 14.5965V14.2222C69.792 13.5069 70.0199 13.1493 70.4758 13.1493H71.4383L71.8182 10.7039C71.852 10.4543 71.9617 10.2713 72.1475 10.1549C72.3332 10.0384 72.5949 9.98022 72.9326 9.98022H73.5405C73.9457 9.98022 74.2328 10.0384 74.4017 10.1549C74.5874 10.2713 74.6803 10.4543 74.6803 10.7039V13.1493H76.4279C76.8838 13.1493 77.1117 13.5069 77.1117 14.2222V14.5965C77.1117 15.3118 76.8838 15.6695 76.4279 15.6695H74.6803V22.6314C74.6803 23.0473 74.7478 23.3467 74.8829 23.5297C75.0348 23.7127 75.2881 23.8042 75.6427 23.8042C75.9635 23.8042 76.2084 23.7709 76.3772 23.7044C76.5461 23.6212 76.6896 23.5796 76.8078 23.5796C76.8922 23.5796 76.9682 23.6545 77.0357 23.8042C77.1202 23.9373 77.1877 24.1119 77.2384 24.3282C77.289 24.5278 77.3228 24.7274 77.3397 24.9271C77.3734 25.1267 77.3903 25.2681 77.3903 25.3513C77.3903 25.5343 77.2552 25.7089 76.9851 25.8753C76.7149 26.0416 76.3857 26.1664 75.9973 26.2496C75.6258 26.3327 75.2544 26.3743 74.8829 26.3743Z" fill="#7A7A7A"/>
<path d="M61.0892 26.3742C59.8397 26.3742 58.8941 26.0498 58.2525 25.4011C57.6109 24.7357 57.29 23.7459 57.29 22.4317V13.8229C57.29 13.59 57.3913 13.4153 57.594 13.2989C57.8135 13.1658 58.1596 13.0992 58.6324 13.0992H59.1643C59.654 13.0992 60.0001 13.1658 60.2027 13.2989C60.4222 13.4153 60.532 13.59 60.532 13.8229V22.0075C60.532 22.5564 60.6671 22.9889 60.9372 23.305C61.2243 23.6045 61.6717 23.7542 62.2796 23.7542C62.6004 23.7542 62.9213 23.6959 63.2421 23.5795C63.5798 23.4464 63.8837 23.2634 64.1539 23.0305C64.4409 22.7976 64.6689 22.5232 64.8377 22.2071V13.8229C64.8377 13.59 64.939 13.4153 65.1417 13.2989C65.3612 13.1658 65.7073 13.0992 66.1801 13.0992H66.7373C67.2101 13.0992 67.5478 13.1658 67.7504 13.2989C67.9699 13.4153 68.0797 13.59 68.0797 13.8229V22.0574C68.0797 22.7727 68.0966 23.3466 68.1303 23.7791C68.181 24.2116 68.2232 24.561 68.257 24.8271C68.3076 25.0767 68.333 25.2763 68.333 25.426C68.333 25.5924 68.2317 25.7255 68.029 25.8253C67.8433 25.9251 67.6069 26.0083 67.3198 26.0748C67.0497 26.1247 66.7795 26.1663 66.5094 26.1996C66.2561 26.2162 66.0619 26.2245 65.9268 26.2245C65.7411 26.2245 65.5976 26.1746 65.4962 26.0748C65.3949 25.975 65.3105 25.8003 65.243 25.5508C65.1754 25.3013 65.0994 24.9519 65.015 24.5028C64.7449 24.8355 64.3987 25.1515 63.9766 25.451C63.5713 25.7338 63.1239 25.9583 62.6342 26.1247C62.1445 26.2911 61.6295 26.3742 61.0892 26.3742Z" fill="#7A7A7A"/>
<path d="M44.1865 26.2495C43.7138 26.2495 43.3676 26.1913 43.1481 26.0749C42.9286 25.9418 42.8188 25.7588 42.8188 25.5259V9.6558C42.8188 9.0403 43.1143 8.73254 43.7053 8.73254H48.7202C50.8309 8.73254 52.3843 9.15674 53.3805 10.0051C54.3937 10.8535 54.9002 12.0762 54.9002 13.6732C54.9002 14.3886 54.782 15.029 54.5456 15.5946C54.3261 16.1602 53.9884 16.6343 53.5325 17.0169C53.0935 17.3829 52.5532 17.6574 51.9115 17.8404V17.9402C52.283 18.0566 52.6207 18.3062 52.9246 18.6888C53.2455 19.0714 53.5072 19.5289 53.7098 20.0612L55.736 25.0518C55.8036 25.2015 55.8542 25.3346 55.888 25.451C55.9218 25.5675 55.9386 25.6673 55.9386 25.7505C55.9386 25.9335 55.8373 26.0666 55.6347 26.1497C55.4321 26.2163 55.0944 26.2495 54.6216 26.2495H53.8364C53.5156 26.2495 53.237 26.208 53.0006 26.1248C52.7642 26.0416 52.5954 25.8752 52.4941 25.6257L50.5185 20.8098C50.3665 20.4105 50.1808 20.0945 49.9613 19.8616C49.7418 19.612 49.4547 19.4291 49.1001 19.3126C48.7624 19.1962 48.315 19.1379 47.7578 19.1379H46.1874V25.5259C46.1874 25.7588 46.0777 25.9418 45.8582 26.0749C45.6556 26.1913 45.3094 26.2495 44.8197 26.2495H44.1865ZM46.1874 16.4929H48.8469C49.7755 16.4929 50.4425 16.3016 50.8478 15.919C51.2699 15.5364 51.481 14.9126 51.481 14.0475C51.481 13.1659 51.2699 12.5254 50.8478 12.1262C50.4425 11.7269 49.7755 11.5273 48.8469 11.5273H46.1874V16.4929Z" fill="#7A7A7A"/>
<defs>
<linearGradient id="paint0_linear_1601_1318" x1="0.0561523" y1="24.5634" x2="25.1111" y2="24.5634" gradientUnits="userSpaceOnUse">
<stop stop-color="#37784C"/>
<stop offset="1" stop-color="#5F9C73"/>
</linearGradient>
<linearGradient id="paint1_linear_1601_1318" x1="16.0908" y1="22.4621" x2="33.1977" y2="22.4621" gradientUnits="userSpaceOnUse">
<stop stop-color="#9B9B9B"/>
<stop offset="1" stop-color="#636262"/>
</linearGradient>
</defs>
</svg>
