<svg width="96" height="97" viewBox="0 0 96 97" fill="none" xmlns="http://www.w3.org/2000/svg">
<path d="M39.9102 16.3394C39.2082 16.3139 38.5828 15.8289 38.4105 15.1077L35.4622 2.6126C35.258 1.75747 35.794 0.895953 36.6492 0.691742C37.5043 0.487531 38.3658 1.02358 38.57 1.87872L41.5183 14.3739C41.7225 15.229 41.1865 16.0905 40.3313 16.2947C40.1909 16.3266 40.0505 16.3394 39.9102 16.3394Z" fill="#F6C260"/>
<path d="M80.7923 41.5601C80.0903 41.5346 79.4649 41.0496 79.2926 40.3284C79.0884 39.4733 79.6245 38.6118 80.4796 38.4076L92.9045 35.472C93.7597 35.2742 94.6212 35.7975 94.8254 36.659C95.0296 37.5142 94.4936 38.3757 93.6384 38.5799L81.2135 41.5154C81.0731 41.5473 80.9327 41.5601 80.7923 41.5601Z" fill="#F6C260"/>
<path d="M65.4206 20.6947C65.1525 20.6883 64.8845 20.6117 64.6356 20.4586C63.889 19.9927 63.6529 19.01 64.1187 18.2633L70.9981 7.14021C71.4575 6.39356 72.4467 6.15744 73.1933 6.6233C73.94 7.08915 74.1761 8.07192 73.7102 8.81856L66.8309 19.9417C66.5182 20.4458 65.9694 20.7138 65.4206 20.6947Z" fill="#F6C260"/>
<path d="M18.7506 31.4645C18.4826 31.4581 18.2146 31.3815 17.9657 31.2284L7.14253 24.5341C6.39588 24.0682 6.15976 23.0855 6.62562 22.3388C7.08509 21.5922 8.07424 21.3561 8.82088 21.8219L19.6441 28.5162C20.3907 28.982 20.6268 29.9648 20.161 30.7115C19.8483 31.2156 19.2994 31.4836 18.7506 31.4645Z" fill="#F6C260"/>
<path d="M27.8496 21.8109C27.371 21.7917 26.9115 21.5684 26.6116 21.1472L19.126 10.758C18.609 10.0432 18.775 9.04771 19.4897 8.5308C20.2044 8.01389 21.2 8.17981 21.7169 8.89455L29.2025 19.2838C29.7194 19.9985 29.5535 20.994 28.8387 21.5109C28.5388 21.7279 28.1942 21.8236 27.8496 21.8109Z" fill="#F6C260"/>
<path d="M75.196 29.5495C74.7174 29.5303 74.2579 29.307 73.958 28.8858C73.4411 28.171 73.607 27.1755 74.3217 26.6586L84.7748 19.1283C85.4895 18.6114 86.485 18.7773 87.0019 19.4921C87.5188 20.2068 87.3529 21.2023 86.6382 21.7193L76.1852 29.2495C75.8852 29.4665 75.5406 29.5622 75.196 29.5495Z" fill="#F6C260"/>
<path d="M53.1219 15.6684C53.0517 15.6684 52.9815 15.662 52.9113 15.6492C52.0434 15.5025 51.4563 14.6856 51.5967 13.8113L53.6771 1.33535C53.8238 0.467452 54.6343 -0.119654 55.515 0.0207406C56.3829 0.167517 56.97 0.98436 56.8296 1.85864L54.7492 14.3346C54.6152 15.1323 53.9132 15.6939 53.1219 15.6684Z" fill="#F6C260"/>
<path d="M14.1175 43.915C14.0473 43.915 13.9835 43.9086 13.9133 43.8958L1.34155 41.8537C0.473659 41.7133 -0.11983 40.8965 0.0205649 40.0222C0.16096 39.1543 0.984185 38.5608 1.85208 38.7012L14.4238 40.7433C15.2917 40.8837 15.8852 41.7006 15.7448 42.5749C15.6172 43.3789 14.9088 43.9405 14.1175 43.915Z" fill="#F6C260"/>
<path d="M74.8948 41.526C72.1061 29.9562 62.0615 20.6518 49.5599 19.8414C42.7891 19.401 36.433 21.4176 31.3405 25.1189C27.0265 28.0481 24.1102 32.1004 22.2786 36.2612C22.2021 36.4271 22.1319 36.593 22.0617 36.7653C21.9979 36.9249 21.9277 37.0844 21.8638 37.2439C21.7362 37.563 21.615 37.8885 21.4937 38.2139C21.4809 38.2459 21.4682 38.2778 21.4618 38.3097C21.3342 38.667 21.2129 39.0244 21.0981 39.3882C21.0661 39.4775 21.0406 39.5732 21.0151 39.6626C20.9385 39.9242 20.8556 40.1859 20.7854 40.4539C20.0132 43.2618 19.6941 45.9612 19.7388 48.2267C19.7388 48.2267 34.1165 53.5872 43.5995 59.5795C43.5995 59.5795 62.2657 48.399 75.5075 44.2509C75.5075 44.2509 75.3607 43.1916 74.8821 41.526H74.8948Z" fill="#F6C260"/>
<path d="M11.7569 59.014C30.8251 65.8487 49.1339 91.5984 52.1141 95.9378C60.1804 95.0827 68.2021 92.2812 72.0183 88.6501L70.6973 87.2589C70.6973 87.2589 70.6845 87.2717 70.6781 87.278C38.7638 50.5712 1.57832 47.0613 1.20819 47.0294L0.187132 46.9464L0.167988 47.9675C-0.259579 73.5321 18.5087 94.0936 43.9201 96.0655C37.6088 81.7963 11.7506 59.014 11.7506 59.014H11.7569Z" fill="url(#paint0_linear_87_82)"/>
<path d="M95.1456 44.5085L95.1073 43.4619L94.0671 43.5959C68.9109 46.825 47.5836 61.1581 47.373 61.2984L46.1478 62.1344L47.4113 62.9066C51.0999 65.1721 54.8395 68.0565 58.3047 71.0304C60.2064 69.1159 73.4865 56.2889 90.3339 53.7746C90.3339 53.7746 70.8764 63.1746 62.4974 74.7827C69.1598 80.9793 74.0225 86.5759 74.1055 86.6716L74.6607 87.3162L75.3627 86.8375C87.4877 78.6181 94.1373 66.6335 95.1392 51.2028C95.2987 48.7267 95.1392 44.6744 95.1392 44.5021L95.1456 44.5085Z" fill="url(#paint1_linear_87_82)"/>
<defs>
<linearGradient id="paint0_linear_87_82" x1="0.160828" y1="71.5059" x2="72.0183" y2="71.5059" gradientUnits="userSpaceOnUse">
<stop stop-color="#37784C"/>
<stop offset="1" stop-color="#5F9C73"/>
</linearGradient>
<linearGradient id="paint1_linear_87_82" x1="46.1478" y1="65.389" x2="95.2101" y2="65.389" gradientUnits="userSpaceOnUse">
<stop stop-color="#9B9B9B"/>
<stop offset="1" stop-color="#636262"/>
</linearGradient>
</defs>
</svg>
