<svg width="23" height="20" viewBox="0 0 23 20" fill="none" xmlns="http://www.w3.org/2000/svg">
<path fill-rule="evenodd" clip-rule="evenodd" d="M15.9066 5.59019H17.6071C18.507 5.59019 19.37 5.93131 20.0063 6.53851C20.6425 7.1457 21 7.96923 21 8.82794V14.0083C21 14.1801 20.9285 14.3448 20.8013 14.4662C20.674 14.5877 20.5014 14.6559 20.3214 14.6559H18.3617C18.3617 15.2776 18.1029 15.8738 17.6422 16.3134C17.1816 16.753 16.5568 17 15.9053 17C15.2538 17 14.629 16.753 14.1683 16.3134C13.7077 15.8738 13.4489 15.2776 13.4489 14.6559H8.78571C8.78571 15.2776 8.52691 15.8738 8.06624 16.3134C7.60557 16.753 6.98077 17 6.32929 17C5.6778 17 5.053 16.753 4.59233 16.3134C4.13166 15.8738 3.87286 15.2776 3.87286 14.6559H2.67857C2.4986 14.6559 2.32601 14.5877 2.19875 14.4662C2.07149 14.3448 2 14.1801 2 14.0083V4.94265C2 4.42742 2.21448 3.9333 2.59625 3.56899C2.97802 3.20467 3.49581 3 4.03571 3H12.1786C12.6964 3.00002 13.1947 3.18834 13.5722 3.52662C13.9496 3.86491 14.1778 4.32774 14.2102 4.82091V9.72026C14.2102 9.93493 14.2996 10.1408 14.4587 10.2926C14.6177 10.4444 14.8335 10.5297 15.0584 10.5297C15.2834 10.5297 15.4991 10.4444 15.6582 10.2926C15.8173 10.1408 15.9066 9.93493 15.9066 9.72026V5.59019Z" fill="#888888"/>
</svg>
