<svg width="19" height="19" viewBox="0 0 19 19" fill="none" xmlns="http://www.w3.org/2000/svg">
<path d="M13.3786 2.8501H1.02856V13.3001H13.3786V2.8501Z" stroke="#7A7A7A" stroke-width="1.3" stroke-linecap="round" stroke-linejoin="round"/>
<path d="M13.3005 6.6499H15.6856L18.1285 9.14365V13.2999H13.3005V6.6499Z" stroke="#7A7A7A" stroke-width="1.3" stroke-linecap="round" stroke-linejoin="round"/>
<path d="M4.82847 17.0998C5.87781 17.0998 6.72847 16.2491 6.72847 15.1998C6.72847 14.1505 5.87781 13.2998 4.82847 13.2998C3.77913 13.2998 2.92847 14.1505 2.92847 15.1998C2.92847 16.2491 3.77913 17.0998 4.82847 17.0998Z" stroke="#7A7A7A" stroke-width="1.3" stroke-linecap="round" stroke-linejoin="round"/>
<path d="M14.3285 17.0998C15.3778 17.0998 16.2285 16.2491 16.2285 15.1998C16.2285 14.1505 15.3778 13.2998 14.3285 13.2998C13.2791 13.2998 12.4285 14.1505 12.4285 15.1998C12.4285 16.2491 13.2791 17.0998 14.3285 17.0998Z" stroke="#7A7A7A" stroke-width="1.3" stroke-linecap="round" stroke-linejoin="round"/>
</svg>
