<svg width="20" height="20" viewBox="0 0 20 20" fill="none" xmlns="http://www.w3.org/2000/svg">
<path fill-rule="evenodd" clip-rule="evenodd" d="M10.0007 1.66663C7.69946 1.66663 5.83398 3.53211 5.83398 5.83329C5.83398 8.13448 7.69946 9.99996 10.0007 9.99996C12.3018 9.99996 14.1673 8.13448 14.1673 5.83329C14.1673 3.53211 12.3018 1.66663 10.0007 1.66663Z" fill="#888888"/>
<path fill-rule="evenodd" clip-rule="evenodd" d="M7.50074 10.8334C6.11512 10.8334 4.7826 11.4655 4.0017 12.4171C3.60537 12.9 3.32676 13.4976 3.30249 14.16C3.27772 14.8364 3.52188 15.4966 4.0254 16.0726C5.25253 17.4764 7.2118 18.3334 10.0007 18.3334C12.7897 18.3334 14.749 17.4764 15.9761 16.0726C16.4796 15.4966 16.7238 14.8364 16.699 14.16C16.6747 13.4976 16.3961 12.9 15.9998 12.4171C15.2189 11.4655 13.8864 10.8334 12.5007 10.8334H7.50074Z" fill="#888888"/>
</svg>
