<svg width="32" height="32" viewBox="0 0 32 32" fill="none" xmlns="http://www.w3.org/2000/svg">
<path fill-rule="evenodd" clip-rule="evenodd" d="M21.724 21.724C22.2447 21.2033 23.0889 21.2033 23.6096 21.724L28.943 27.0574C29.4637 27.5781 29.4637 28.4223 28.943 28.943C28.4223 29.4637 27.5781 29.4637 27.0574 28.943L21.724 23.6096C21.2033 23.0889 21.2033 22.2447 21.724 21.724Z" fill="#B0B0B0"/>
<path fill-rule="evenodd" clip-rule="evenodd" d="M14.6665 2.6665C8.03909 2.6665 2.6665 8.03909 2.6665 14.6665C2.6665 21.2939 8.03909 26.6665 14.6665 26.6665C21.2939 26.6665 26.6665 21.2939 26.6665 14.6665C26.6665 8.03909 21.2939 2.6665 14.6665 2.6665ZM14.6665 9.33317C15.4029 9.33317 15.9998 9.93012 15.9998 10.6665V13.3332H18.6665C19.4029 13.3332 19.9998 13.9301 19.9998 14.6665C19.9998 15.4029 19.4029 15.9998 18.6665 15.9998H15.9998V18.6665C15.9998 19.4029 15.4029 19.9998 14.6665 19.9998C13.9301 19.9998 13.3332 19.4029 13.3332 18.6665V15.9998H10.6665C9.93012 15.9998 9.33317 15.4029 9.33317 14.6665C9.33317 13.9301 9.93012 13.3332 10.6665 13.3332H13.3332V10.6665C13.3332 9.93012 13.9301 9.33317 14.6665 9.33317Z" fill="#B0B0B0"/>
</svg>
